<svg width="37" height="38" viewBox="0 0 37 38" fill="none" xmlns="http://www.w3.org/2000/svg">
<path d="M35.4131 13.5694C34.193 10.5453 32.1629 7.90598 29.5402 5.93437C29.5546 5.83801 29.0452 1.31478 29.0434 1.21664C29.0073 0.884293 28.848 0.576867 28.5962 0.353532C28.3444 0.130197 28.0179 0.00672613 27.6795 0.00687345C27.049 -0.155499 23.7756 2.61019 23.2373 2.8814C20.2035 2.09274 17.0146 2.09274 13.9808 2.8814C13.4172 2.59413 10.1872 -0.141225 9.53863 0.00687345C9.20024 0.00746825 8.87392 0.131152 8.622 0.354305C8.37008 0.577458 8.21021 0.884449 8.17291 1.21664C8.17291 1.31657 7.6689 5.83266 7.67612 5.93259C-5.93405 16.0372 1.31182 37.9967 18.6127 37.9967C31.1931 38.2412 40.2022 24.7946 35.4131 13.5694ZM18.6127 27.1302C9.32726 26.9679 9.29836 13.3446 18.5765 13.1412C27.8999 13.2715 27.9342 26.9714 18.6127 27.1392V27.1302Z" fill="#21BF48"/>
</svg>
